%YAML 1.1
%TAG !u! tag:unity3d.com,2011:
--- !u!43 &4300000
Mesh:
  m_ObjectHideFlags: 0
  m_CorrespondingSourceObject: {fileID: 0}
  m_PrefabInstance: {fileID: 0}
  m_PrefabAsset: {fileID: 0}
  m_Name: FarPlaneDepthMask
  serializedVersion: 11
  m_SubMeshes:
  - serializedVersion: 2
    firstByte: 0
    indexCount: 24
    topology: 0
    baseVertex: 0
    firstVertex: 0
    vertexCount: 12
    localAABB:
      m_Center: {x: 0.03645754, y: -0.036532164, z: 0}
      m_Extent: {x: 6.816758, y: 5.0577097, z: 0}
  m_Shapes:
    vertices: []
    shapes: []
    channels: []
    fullWeights: []
  m_BindPose: []
  m_BoneNameHashes: 
  m_RootBoneNameHash: 0
  m_BonesAABB: []
  m_VariableBoneCountWeights:
    m_Data: 
  m_MeshCompression: 0
  m_IsReadable: 1
  m_KeepVertices: 1
  m_KeepIndices: 1
  m_IndexFormat: 0
  m_IndexBuffer: 0200010000000100030000000300040000000000040005000400060005000700050006000a00090008000b0008000900
  m_VertexData:
    serializedVersion: 3
    m_VertexCount: 12
    m_Channels:
    - stream: 0
      offset: 0
      format: 0
      dimension: 3
    - stream: 0
      offset: 12
      format: 0
      dimension: 3
    - stream: 0
      offset: 24
      format: 0
      dimension: 4
    - stream: 0
      offset: 0
      format: 0
      dimension: 0
    - stream: 0
      offset: 0
      format: 0
      dimension: 0
    - stream: 0
      offset: 0
      format: 0
      dimension: 0
    - stream: 0
      offset: 0
      format: 0
      dimension: 0
    - stream: 0
      offset: 0
      format: 0
      dimension: 0
    - stream: 0
      offset: 0
      format: 0
      dimension: 0
    - stream: 0
      offset: 0
      format: 0
      dimension: 0
    - stream: 0
      offset: 0
      format: 0
      dimension: 0
    - stream: 0
      offset: 0
      format: 0
      dimension: 0
    - stream: 0
      offset: 0
      format: 0
      dimension: 0
    - stream: 0
      offset: 0
      format: 0
      dimension: 0
    m_DataSize: 480
    _typelessdata: 8b4ddb407cada040000000000000000000000000000080bf0000803f00000000000000000000803f02a4d340624db5bd000000000000000000000000000080bf0000803f00000000000000000000803f2331d740bfd6d8bd000000000000000000000000000080bf0000803f00000000000000000000803fb60a8e403c7d6c40000000000000000000000000ffff7fbf0000803f00000000000000000000803fe7578cc0dabc6d40000000000000000000000000ffff7fbf0000803f00000000000000000000803f828fd3c07e869f40000000000000000000000000000080bf0000803f00000000000000000000803fd6c6cfc0146cdebc000000000000000000000000000080bf0000803f00000000000000000000803fe064d8c0cf1a87bd000000000000000000000000000080bf0000803f00000000000000000000803f8152d640700deabd000000000000000000000000000080bf0000803f00000000000000000000803f6590d7c00704a3c0000000000000000000000000000080bf0000803f00000000000000000000803f010dd6403377a2c0000000000000000000000000000080bf0000803f00000000000000000000803f39f8d8c0b38901be000000000000000000000000000080bf0000803f00000000000000000000803f
  m_CompressedMesh:
    m_Vertices:
      m_NumItems: 0
      m_Range: 0
      m_Start: 0
      m_Data: 
      m_BitSize: 0
    m_UV:
      m_NumItems: 0
      m_Range: 0
      m_Start: 0
      m_Data: 
      m_BitSize: 0
    m_Normals:
      m_NumItems: 0
      m_Range: 0
      m_Start: 0
      m_Data: 
      m_BitSize: 0
    m_Tangents:
      m_NumItems: 0
      m_Range: 0
      m_Start: 0
      m_Data: 
      m_BitSize: 0
    m_Weights:
      m_NumItems: 0
      m_Data: 
      m_BitSize: 0
    m_NormalSigns:
      m_NumItems: 0
      m_Data: 
      m_BitSize: 0
    m_TangentSigns:
      m_NumItems: 0
      m_Data: 
      m_BitSize: 0
    m_FloatColors:
      m_NumItems: 0
      m_Range: 0
      m_Start: 0
      m_Data: 
      m_BitSize: 0
    m_BoneIndices:
      m_NumItems: 0
      m_Data: 
      m_BitSize: 0
    m_Triangles:
      m_NumItems: 0
      m_Data: 
      m_BitSize: 0
    m_UVInfo: 0
  m_LocalAABB:
    m_Center: {x: 0.03645754, y: -0.036532164, z: 0}
    m_Extent: {x: 6.816758, y: 5.0577097, z: 0}
  m_MeshUsageFlags: 0
  m_CookingOptions: 30
  m_BakedConvexCollisionMesh: 
  m_BakedTriangleCollisionMesh: 
  m_MeshMetrics[0]: 1
  m_MeshMetrics[1]: 1
  m_MeshOptimizationFlags: 1
  m_StreamData:
    serializedVersion: 2
    offset: 0
    size: 0
    path: 
